<svg height="512pt" viewBox="-31 0 512 512" width="512pt" xmlns="http://www.w3.org/2000/svg"><path d="m390 181c0 6.898438-1.199219 13.5-3.300781 20.097656h-323.398438c-2.101562-6.597656-3.300781-13.199218-3.300781-20.097656 0-21.902344 12-41.699219 30.601562-52.199219-.300781-2.402343-.601562-5.101562-.601562-7.800781 0-33.601562 26.699219-62.199219 61.5-61 6.902344-34.199219 37.199219-60 73.5-60s66.597656 25.800781 73.5 60c34.800781-.902344 61.5 27.398438 61.5 61 0 2.699219-.300781 5.398438-.601562 7.800781 18.601562 10.5 30.601562 30.296875 30.601562 52.199219zm0 0" fill="#fdbf00"/><path d="m390 181c0 6.898438-1.199219 13.5-3.300781 20.097656h-161.699219v-201.097656c36.300781 0 66.597656 25.800781 73.5 60 34.800781-.902344 61.5 27.398438 61.5 61 0 2.699219-.300781 5.398438-.601562 7.800781 18.601562 10.5 30.601562 30.296875 30.601562 52.199219zm0 0" fill="#ff9f00"/><path d="m30.292969 198.945312 60 301c1.40625 7 7.558593 12.054688 14.707031 12.054688h60l28.976562-177.269531-57.34375-135.785157zm0 0" fill="#e63950"/><path d="m313.367188 198.945312-43.929688 153.253907 15.5625 159.800781h60c7.148438 0 13.300781-5.054688 14.707031-12.054688l60-301zm0 0" fill="#cc2e43"/><path d="m313.5 199-28.5 313h-120l-28.5-313zm0 0" fill="#ec5569"/><path d="m313.5 199-28.5 313h-60v-313zm0 0" fill="#e63950"/><path d="m225 271c-58.800781 0-105 33-105 75s46.199219 75 105 75 105-33 105-75-46.199219-75-105-75zm0 0" fill="#fdbf00"/><path d="m330 346c0 42-46.199219 75-105 75v-150c58.800781 0 105 33 105 75zm0 0" fill="#ff9f00"/><path d="m450 196c0 8.398438-6.597656 15-15 15h-420c-8.402344 0-15-6.601562-15-15 0-8.402344 6.597656-15 15-15h420c8.402344 0 15 6.597656 15 15zm0 0" fill="#ede9e8"/><path d="m450 196c0 8.398438-6.597656 15-15 15h-210v-30h210c8.402344 0 15 6.597656 15 15zm0 0" fill="#dfd7d5"/></svg>